<svg width="987" height="940" viewBox="0 0 987 940" fill="none" xmlns="http://www.w3.org/2000/svg">
<path d="M481.494 9.55168C485.385 -2.42535 502.33 -2.42538 506.221 9.55166L613.72 340.397C615.46 345.753 620.451 349.38 626.083 349.38L973.955 349.38C986.548 349.38 991.784 365.495 981.596 372.897L700.162 577.371C695.606 580.681 693.699 586.549 695.44 591.905L802.938 922.751C806.829 934.728 793.121 944.687 782.933 937.285L501.499 732.812C496.942 729.501 490.773 729.501 486.216 732.812L204.782 937.285C194.594 944.687 180.886 934.728 184.777 922.751L292.276 591.905C294.016 586.549 292.109 580.681 287.553 577.371L6.11918 372.897C-4.0691 365.495 1.16696 349.38 13.7604 349.38L361.632 349.38C367.264 349.38 372.255 345.753 373.996 340.397L481.494 9.55168Z" fill="#DBE0E1"/>
</svg>
